# Wavefront OBJ file automatically generated by Tiled2Unity

# Vertices (Count = 538)
v -3520 -256 0
v -3552 -256 0
v -3552 -224 0
v -3520 -224 0
v -3584 -256 0
v -3584 -224 0
v -3616 -256 0
v -3616 -224 0
v -3680 -256 0
v -3712 -256 0
v -3712 -224 0
v -3680 -224 0
v -3744 -256 0
v -3744 -224 0
v -3776 -256 0
v -3776 -224 0
v -4032 -256 0
v -4064 -256 0
v -4064 -224 0
v -4032 -224 0
v -4096 -256 0
v -4096 -224 0
v -4128 -256 0
v -4128 -224 0
v -4160 -256 0
v -4160 -224 0
v -4192 -256 0
v -4192 -224 0
v -4512 -256 0
v -4544 -256 0
v -4544 -224 0
v -4512 -224 0
v -4576 -256 0
v -4576 -224 0
v -4608 -256 0
v -4608 -224 0
v -4640 -256 0
v -4640 -224 0
v -4672 -256 0
v -4672 -224 0
v -4704 -256 0
v -4704 -224 0
v -6272 -256 0
v -6304 -256 0
v -6304 -224 0
v -6272 -224 0
v -6336 -256 0
v -6336 -224 0
v -6368 -256 0
v -6368 -224 0
v -6400 -256 0
v -6400 -224 0
v -6432 -256 0
v -6432 -224 0
v -6464 -256 0
v -6464 -224 0
v -6496 -256 0
v -6496 -224 0
v -6528 -256 0
v -6528 -224 0
v -6560 -256 0
v -6560 -224 0
v -6592 -256 0
v -6592 -224 0
v -6624 -256 0
v -6624 -224 0
v -6656 -256 0
v -6656 -224 0
v -6688 -256 0
v -6688 -224 0
v -6720 -256 0
v -6720 -224 0
v -6752 -256 0
v -6752 -224 0
v -6784 -256 0
v -6784 -224 0
v -6816 -256 0
v -6816 -224 0
v -6848 -256 0
v -6848 -224 0
v -6880 -256 0
v -6880 -224 0
v -3328 -288 0
v -3360 -288 0
v -3360 -256 0
v -3328 -256 0
v -3392 -288 0
v -3392 -256 0
v -3424 -288 0
v -3424 -256 0
v -3456 -288 0
v -3456 -256 0
v -3488 -288 0
v -3488 -256 0
v -3520 -288 0
v -3552 -288 0
v -3584 -288 0
v -3616 -288 0
v -3680 -288 0
v -3712 -288 0
v -3744 -288 0
v -3776 -288 0
v -3808 -288 0
v -3808 -256 0
v -3840 -288 0
v -3840 -256 0
v -3872 -288 0
v -3872 -256 0
v -3904 -288 0
v -3904 -256 0
v -3936 -288 0
v -3936 -256 0
v -3968 -288 0
v -3968 -256 0
v -4256 -288 0
v -4288 -288 0
v -4288 -256 0
v -4256 -256 0
v -4320 -288 0
v -4320 -256 0
v -4352 -288 0
v -4352 -256 0
v -4384 -288 0
v -4384 -256 0
v -4416 -288 0
v -4416 -256 0
v -4448 -288 0
v -4448 -256 0
v -4768 -288 0
v -4800 -288 0
v -4800 -256 0
v -4768 -256 0
v -4832 -288 0
v -4832 -256 0
v -4864 -288 0
v -4864 -256 0
v -4896 -288 0
v -4896 -256 0
v -4928 -288 0
v -4928 -256 0
v -4960 -288 0
v -4960 -256 0
v -6080 -288 0
v -6112 -288 0
v -6112 -256 0
v -6080 -256 0
v -6144 -288 0
v -6144 -256 0
v -6176 -288 0
v -6176 -256 0
v -6208 -288 0
v -6208 -256 0
v -6944 -288 0
v -6976 -288 0
v -6976 -256 0
v -6944 -256 0
v -7008 -288 0
v -7008 -256 0
v -7040 -288 0
v -7040 -256 0
v -7072 -288 0
v -7072 -256 0
v 0 -320 0
v -32 -320 0
v -32 -288 0
v 0 -288 0
v -64 -320 0
v -64 -288 0
v -96 -320 0
v -96 -288 0
v -128 -320 0
v -128 -288 0
v -160 -320 0
v -160 -288 0
v -192 -320 0
v -192 -288 0
v -224 -320 0
v -224 -288 0
v -256 -320 0
v -256 -288 0
v -288 -320 0
v -288 -288 0
v -320 -320 0
v -320 -288 0
v -352 -320 0
v -352 -288 0
v -384 -320 0
v -384 -288 0
v -416 -320 0
v -416 -288 0
v -448 -320 0
v -448 -288 0
v -480 -320 0
v -480 -288 0
v -512 -320 0
v -512 -288 0
v -544 -320 0
v -544 -288 0
v -608 -320 0
v -640 -320 0
v -640 -288 0
v -608 -288 0
v -672 -320 0
v -672 -288 0
v -704 -320 0
v -704 -288 0
v -736 -320 0
v -736 -288 0
v -768 -320 0
v -768 -288 0
v -864 -320 0
v -896 -320 0
v -896 -288 0
v -864 -288 0
v -928 -320 0
v -928 -288 0
v -960 -320 0
v -960 -288 0
v -992 -320 0
v -992 -288 0
v -1024 -320 0
v -1024 -288 0
v -1056 -320 0
v -1056 -288 0
v -1088 -320 0
v -1088 -288 0
v -1120 -320 0
v -1120 -288 0
v -1184 -320 0
v -1216 -320 0
v -1216 -288 0
v -1184 -288 0
v -1248 -320 0
v -1248 -288 0
v -1280 -320 0
v -1280 -288 0
v -1312 -320 0
v -1312 -288 0
v -1344 -320 0
v -1344 -288 0
v -1440 -320 0
v -1472 -320 0
v -1472 -288 0
v -1440 -288 0
v -1504 -320 0
v -1504 -288 0
v -1536 -320 0
v -1536 -288 0
v -1568 -320 0
v -1568 -288 0
v -1600 -320 0
v -1600 -288 0
v -1632 -320 0
v -1632 -288 0
v -1664 -320 0
v -1664 -288 0
v -1728 -320 0
v -1760 -320 0
v -1760 -288 0
v -1728 -288 0
v -1792 -320 0
v -1792 -288 0
v -1824 -320 0
v -1824 -288 0
v -1856 -320 0
v -1856 -288 0
v -1920 -320 0
v -1952 -320 0
v -1952 -288 0
v -1920 -288 0
v -1984 -320 0
v -1984 -288 0
v -2016 -320 0
v -2016 -288 0
v -2048 -320 0
v -2048 -288 0
v -2080 -320 0
v -2080 -288 0
v -2112 -320 0
v -2112 -288 0
v -2144 -320 0
v -2144 -288 0
v -2176 -320 0
v -2176 -288 0
v -2304 -320 0
v -2336 -320 0
v -2336 -288 0
v -2304 -288 0
v -2368 -320 0
v -2368 -288 0
v -2400 -320 0
v -2400 -288 0
v -2432 -320 0
v -2432 -288 0
v -2464 -320 0
v -2464 -288 0
v -2496 -320 0
v -2496 -288 0
v -2528 -320 0
v -2528 -288 0
v -2592 -320 0
v -2624 -320 0
v -2624 -288 0
v -2592 -288 0
v -2656 -320 0
v -2656 -288 0
v -2688 -320 0
v -2688 -288 0
v -2720 -320 0
v -2720 -288 0
v -2752 -320 0
v -2752 -288 0
v -2784 -320 0
v -2784 -288 0
v -2816 -320 0
v -2816 -288 0
v -2944 -320 0
v -2976 -320 0
v -2976 -288 0
v -2944 -288 0
v -3008 -320 0
v -3008 -288 0
v -3040 -320 0
v -3040 -288 0
v -3072 -320 0
v -3072 -288 0
v -3104 -320 0
v -3104 -288 0
v -3136 -320 0
v -3136 -288 0
v -3168 -320 0
v -3168 -288 0
v -3200 -320 0
v -3200 -288 0
v -3232 -320 0
v -3232 -288 0
v -3264 -320 0
v -3264 -288 0
v -3296 -320 0
v -3296 -288 0
v -3328 -320 0
v -3360 -320 0
v -3392 -320 0
v -3424 -320 0
v -3456 -320 0
v -3488 -320 0
v -3520 -320 0
v -3552 -320 0
v -3584 -320 0
v -3616 -320 0
v -3680 -320 0
v -3712 -320 0
v -3744 -320 0
v -3776 -320 0
v -3808 -320 0
v -3840 -320 0
v -3872 -320 0
v -3904 -320 0
v -3936 -320 0
v -3968 -320 0
v -5024 -320 0
v -5056 -320 0
v -5056 -288 0
v -5024 -288 0
v -5088 -320 0
v -5088 -288 0
v -5120 -320 0
v -5120 -288 0
v -5152 -320 0
v -5152 -288 0
v -5184 -320 0
v -5184 -288 0
v -5216 -320 0
v -5216 -288 0
v -5248 -320 0
v -5248 -288 0
v -5280 -320 0
v -5280 -288 0
v -5312 -320 0
v -5312 -288 0
v -5440 -320 0
v -5472 -320 0
v -5472 -288 0
v -5440 -288 0
v -5504 -320 0
v -5504 -288 0
v -5536 -320 0
v -5536 -288 0
v -5568 -320 0
v -5568 -288 0
v -5600 -320 0
v -5600 -288 0
v -5664 -320 0
v -5696 -320 0
v -5696 -288 0
v -5664 -288 0
v -5728 -320 0
v -5728 -288 0
v -5760 -320 0
v -5760 -288 0
v -5792 -320 0
v -5792 -288 0
v -5824 -320 0
v -5824 -288 0
v -5888 -320 0
v -5920 -320 0
v -5920 -288 0
v -5888 -288 0
v -5952 -320 0
v -5952 -288 0
v -5984 -320 0
v -5984 -288 0
v -6016 -320 0
v -6016 -288 0
v -7136 -320 0
v -7168 -320 0
v -7168 -288 0
v -7136 -288 0
v -7200 -320 0
v -7200 -288 0
v -7232 -320 0
v -7232 -288 0
v -7264 -320 0
v -7264 -288 0
v -7392 -320 0
v -7424 -320 0
v -7424 -288 0
v -7392 -288 0
v -7456 -320 0
v -7456 -288 0
v -7488 -320 0
v -7488 -288 0
v -7520 -320 0
v -7520 -288 0
v -7552 -320 0
v -7552 -288 0
v -7584 -320 0
v -7584 -288 0
v -7616 -320 0
v -7616 -288 0
v -7680 -320 0
v -7712 -320 0
v -7712 -288 0
v -7680 -288 0
v -7744 -320 0
v -7744 -288 0
v -7776 -320 0
v -7776 -288 0
v -7808 -320 0
v -7808 -288 0
v -7936 -320 0
v -7968 -320 0
v -7968 -288 0
v -7936 -288 0
v -8000 -320 0
v -8000 -288 0
v -8032 -320 0
v -8032 -288 0
v -8064 -320 0
v -8064 -288 0
v -8096 -320 0
v -8096 -288 0
v -8160 -320 0
v -8192 -320 0
v -8192 -288 0
v -8160 -288 0
v -8224 -320 0
v -8224 -288 0
v -8256 -320 0
v -8256 -288 0
v -8288 -320 0
v -8288 -288 0
v -8320 -320 0
v -8320 -288 0
v -8384 -320 0
v -8416 -320 0
v -8416 -288 0
v -8384 -288 0
v -8448 -320 0
v -8448 -288 0
v -8480 -320 0
v -8480 -288 0
v -8512 -320 0
v -8512 -288 0
v -8544 -320 0
v -8544 -288 0
v -8576 -320 0
v -8576 -288 0
v -8704 -320 0
v -8736 -320 0
v -8736 -288 0
v -8704 -288 0
v -8768 -320 0
v -8768 -288 0
v -8800 -320 0
v -8800 -288 0
v -8832 -320 0
v -8832 -288 0
v -8864 -320 0
v -8864 -288 0
v -8896 -320 0
v -8896 -288 0
v -8928 -320 0
v -8928 -288 0
v -9056 -320 0
v -9088 -320 0
v -9088 -288 0
v -9056 -288 0
v -9120 -320 0
v -9120 -288 0
v -9152 -320 0
v -9152 -288 0
v -9184 -320 0
v -9184 -288 0
v -9216 -320 0
v -9216 -288 0
v -9248 -320 0
v -9248 -288 0
v -9280 -320 0
v -9280 -288 0
v -9312 -320 0
v -9312 -288 0
v -9376 -320 0
v -9408 -320 0
v -9408 -288 0
v -9376 -288 0
v -9440 -320 0
v -9440 -288 0
v -9472 -320 0
v -9472 -288 0
v -9504 -320 0
v -9504 -288 0
v -9536 -320 0
v -9536 -288 0
v -9568 -320 0
v -9568 -288 0
v -9600 -320 0
v -9600 -288 0

# Texture cooridinates (Count = 8)
vt 1.205633E-05 0.8012665
vt 0.09875338 0.8012665
vt 0.09875338 0.9999757
vt 1.205633E-05 0.9999757
vt 0.5926046 0.8012665
vt 0.691346 0.8012665
vt 0.691346 0.9999757
vt 0.5926046 0.9999757

# Normal
vn 0 0 -1

# Groups (Count = 1)

g mesh_0001
f 1/1/1 2/2/1 3/3/1 4/4/1
f 2/1/1 5/2/1 6/3/1 3/4/1
f 5/1/1 7/2/1 8/3/1 6/4/1
f 9/1/1 10/2/1 11/3/1 12/4/1
f 10/1/1 13/2/1 14/3/1 11/4/1
f 13/1/1 15/2/1 16/3/1 14/4/1
f 17/5/1 18/6/1 19/7/1 20/8/1
f 18/5/1 21/6/1 22/7/1 19/8/1
f 21/5/1 23/6/1 24/7/1 22/8/1
f 23/5/1 25/6/1 26/7/1 24/8/1
f 25/5/1 27/6/1 28/7/1 26/8/1
f 29/5/1 30/6/1 31/7/1 32/8/1
f 30/5/1 33/6/1 34/7/1 31/8/1
f 33/5/1 35/6/1 36/7/1 34/8/1
f 35/5/1 37/6/1 38/7/1 36/8/1
f 37/5/1 39/6/1 40/7/1 38/8/1
f 39/5/1 41/6/1 42/7/1 40/8/1
f 43/5/1 44/6/1 45/7/1 46/8/1
f 44/5/1 47/6/1 48/7/1 45/8/1
f 47/5/1 49/6/1 50/7/1 48/8/1
f 49/5/1 51/6/1 52/7/1 50/8/1
f 51/5/1 53/6/1 54/7/1 52/8/1
f 53/5/1 55/6/1 56/7/1 54/8/1
f 55/5/1 57/6/1 58/7/1 56/8/1
f 57/5/1 59/6/1 60/7/1 58/8/1
f 59/5/1 61/6/1 62/7/1 60/8/1
f 61/5/1 63/6/1 64/7/1 62/8/1
f 63/5/1 65/6/1 66/7/1 64/8/1
f 65/5/1 67/6/1 68/7/1 66/8/1
f 67/5/1 69/6/1 70/7/1 68/8/1
f 69/5/1 71/6/1 72/7/1 70/8/1
f 71/5/1 73/6/1 74/7/1 72/8/1
f 73/5/1 75/6/1 76/7/1 74/8/1
f 75/5/1 77/6/1 78/7/1 76/8/1
f 77/5/1 79/6/1 80/7/1 78/8/1
f 79/5/1 81/6/1 82/7/1 80/8/1
f 83/1/1 84/2/1 85/3/1 86/4/1
f 84/1/1 87/2/1 88/3/1 85/4/1
f 87/1/1 89/2/1 90/3/1 88/4/1
f 89/1/1 91/2/1 92/3/1 90/4/1
f 91/1/1 93/2/1 94/3/1 92/4/1
f 93/1/1 95/2/1 1/3/1 94/4/1
f 95/1/1 96/2/1 2/3/1 1/4/1
f 96/1/1 97/2/1 5/3/1 2/4/1
f 97/1/1 98/2/1 7/3/1 5/4/1
f 99/1/1 100/2/1 10/3/1 9/4/1
f 100/1/1 101/2/1 13/3/1 10/4/1
f 101/1/1 102/2/1 15/3/1 13/4/1
f 102/1/1 103/2/1 104/3/1 15/4/1
f 103/1/1 105/2/1 106/3/1 104/4/1
f 105/1/1 107/2/1 108/3/1 106/4/1
f 107/1/1 109/2/1 110/3/1 108/4/1
f 109/1/1 111/2/1 112/3/1 110/4/1
f 111/1/1 113/2/1 114/3/1 112/4/1
f 115/5/1 116/6/1 117/7/1 118/8/1
f 116/5/1 119/6/1 120/7/1 117/8/1
f 119/5/1 121/6/1 122/7/1 120/8/1
f 121/5/1 123/6/1 124/7/1 122/8/1
f 123/5/1 125/6/1 126/7/1 124/8/1
f 125/5/1 127/6/1 128/7/1 126/8/1
f 129/5/1 130/6/1 131/7/1 132/8/1
f 130/5/1 133/6/1 134/7/1 131/8/1
f 133/5/1 135/6/1 136/7/1 134/8/1
f 135/5/1 137/6/1 138/7/1 136/8/1
f 137/5/1 139/6/1 140/7/1 138/8/1
f 139/5/1 141/6/1 142/7/1 140/8/1
f 143/5/1 144/6/1 145/7/1 146/8/1
f 144/5/1 147/6/1 148/7/1 145/8/1
f 147/5/1 149/6/1 150/7/1 148/8/1
f 149/5/1 151/6/1 152/7/1 150/8/1
f 153/5/1 154/6/1 155/7/1 156/8/1
f 154/5/1 157/6/1 158/7/1 155/8/1
f 157/5/1 159/6/1 160/7/1 158/8/1
f 159/5/1 161/6/1 162/7/1 160/8/1
f 163/1/1 164/2/1 165/3/1 166/4/1
f 164/1/1 167/2/1 168/3/1 165/4/1
f 167/1/1 169/2/1 170/3/1 168/4/1
f 169/1/1 171/2/1 172/3/1 170/4/1
f 171/1/1 173/2/1 174/3/1 172/4/1
f 173/1/1 175/2/1 176/3/1 174/4/1
f 175/1/1 177/2/1 178/3/1 176/4/1
f 177/1/1 179/2/1 180/3/1 178/4/1
f 179/1/1 181/2/1 182/3/1 180/4/1
f 181/1/1 183/2/1 184/3/1 182/4/1
f 183/1/1 185/2/1 186/3/1 184/4/1
f 185/1/1 187/2/1 188/3/1 186/4/1
f 187/1/1 189/2/1 190/3/1 188/4/1
f 189/1/1 191/2/1 192/3/1 190/4/1
f 191/1/1 193/2/1 194/3/1 192/4/1
f 193/1/1 195/2/1 196/3/1 194/4/1
f 195/1/1 197/2/1 198/3/1 196/4/1
f 199/1/1 200/2/1 201/3/1 202/4/1
f 200/1/1 203/2/1 204/3/1 201/4/1
f 203/1/1 205/2/1 206/3/1 204/4/1
f 205/1/1 207/2/1 208/3/1 206/4/1
f 207/1/1 209/2/1 210/3/1 208/4/1
f 211/1/1 212/2/1 213/3/1 214/4/1
f 212/1/1 215/2/1 216/3/1 213/4/1
f 215/1/1 217/2/1 218/3/1 216/4/1
f 217/1/1 219/2/1 220/3/1 218/4/1
f 219/1/1 221/2/1 222/3/1 220/4/1
f 221/1/1 223/2/1 224/3/1 222/4/1
f 223/1/1 225/2/1 226/3/1 224/4/1
f 225/1/1 227/2/1 228/3/1 226/4/1
f 229/1/1 230/2/1 231/3/1 232/4/1
f 230/1/1 233/2/1 234/3/1 231/4/1
f 233/1/1 235/2/1 236/3/1 234/4/1
f 235/1/1 237/2/1 238/3/1 236/4/1
f 237/1/1 239/2/1 240/3/1 238/4/1
f 241/1/1 242/2/1 243/3/1 244/4/1
f 242/1/1 245/2/1 246/3/1 243/4/1
f 245/1/1 247/2/1 248/3/1 246/4/1
f 247/1/1 249/2/1 250/3/1 248/4/1
f 249/1/1 251/2/1 252/3/1 250/4/1
f 251/1/1 253/2/1 254/3/1 252/4/1
f 253/1/1 255/2/1 256/3/1 254/4/1
f 257/1/1 258/2/1 259/3/1 260/4/1
f 258/1/1 261/2/1 262/3/1 259/4/1
f 261/1/1 263/2/1 264/3/1 262/4/1
f 263/1/1 265/2/1 266/3/1 264/4/1
f 267/1/1 268/2/1 269/3/1 270/4/1
f 268/1/1 271/2/1 272/3/1 269/4/1
f 271/1/1 273/2/1 274/3/1 272/4/1
f 273/1/1 275/2/1 276/3/1 274/4/1
f 275/1/1 277/2/1 278/3/1 276/4/1
f 277/1/1 279/2/1 280/3/1 278/4/1
f 279/1/1 281/2/1 282/3/1 280/4/1
f 281/1/1 283/2/1 284/3/1 282/4/1
f 285/1/1 286/2/1 287/3/1 288/4/1
f 286/1/1 289/2/1 290/3/1 287/4/1
f 289/1/1 291/2/1 292/3/1 290/4/1
f 291/1/1 293/2/1 294/3/1 292/4/1
f 293/1/1 295/2/1 296/3/1 294/4/1
f 295/1/1 297/2/1 298/3/1 296/4/1
f 297/1/1 299/2/1 300/3/1 298/4/1
f 301/1/1 302/2/1 303/3/1 304/4/1
f 302/1/1 305/2/1 306/3/1 303/4/1
f 305/1/1 307/2/1 308/3/1 306/4/1
f 307/1/1 309/2/1 310/3/1 308/4/1
f 309/1/1 311/2/1 312/3/1 310/4/1
f 311/1/1 313/2/1 314/3/1 312/4/1
f 313/1/1 315/2/1 316/3/1 314/4/1
f 317/1/1 318/2/1 319/3/1 320/4/1
f 318/1/1 321/2/1 322/3/1 319/4/1
f 321/1/1 323/2/1 324/3/1 322/4/1
f 323/1/1 325/2/1 326/3/1 324/4/1
f 325/1/1 327/2/1 328/3/1 326/4/1
f 327/1/1 329/2/1 330/3/1 328/4/1
f 329/1/1 331/2/1 332/3/1 330/4/1
f 331/1/1 333/2/1 334/3/1 332/4/1
f 333/1/1 335/2/1 336/3/1 334/4/1
f 335/1/1 337/2/1 338/3/1 336/4/1
f 337/1/1 339/2/1 340/3/1 338/4/1
f 341/1/1 342/2/1 84/3/1 83/4/1
f 342/1/1 343/2/1 87/3/1 84/4/1
f 343/1/1 344/2/1 89/3/1 87/4/1
f 344/1/1 345/2/1 91/3/1 89/4/1
f 345/1/1 346/2/1 93/3/1 91/4/1
f 346/1/1 347/2/1 95/3/1 93/4/1
f 347/1/1 348/2/1 96/3/1 95/4/1
f 348/1/1 349/2/1 97/3/1 96/4/1
f 349/1/1 350/2/1 98/3/1 97/4/1
f 351/1/1 352/2/1 100/3/1 99/4/1
f 352/1/1 353/2/1 101/3/1 100/4/1
f 353/1/1 354/2/1 102/3/1 101/4/1
f 354/1/1 355/2/1 103/3/1 102/4/1
f 355/1/1 356/2/1 105/3/1 103/4/1
f 356/1/1 357/2/1 107/3/1 105/4/1
f 357/1/1 358/2/1 109/3/1 107/4/1
f 358/1/1 359/2/1 111/3/1 109/4/1
f 359/1/1 360/2/1 113/3/1 111/4/1
f 361/1/1 362/2/1 363/3/1 364/4/1
f 362/1/1 365/2/1 366/3/1 363/4/1
f 365/1/1 367/2/1 368/3/1 366/4/1
f 367/1/1 369/2/1 370/3/1 368/4/1
f 369/1/1 371/2/1 372/3/1 370/4/1
f 371/1/1 373/2/1 374/3/1 372/4/1
f 373/1/1 375/2/1 376/3/1 374/4/1
f 375/1/1 377/2/1 378/3/1 376/4/1
f 377/1/1 379/2/1 380/3/1 378/4/1
f 381/1/1 382/2/1 383/3/1 384/4/1
f 382/1/1 385/2/1 386/3/1 383/4/1
f 385/1/1 387/2/1 388/3/1 386/4/1
f 387/1/1 389/2/1 390/3/1 388/4/1
f 389/1/1 391/2/1 392/3/1 390/4/1
f 393/1/1 394/2/1 395/3/1 396/4/1
f 394/1/1 397/2/1 398/3/1 395/4/1
f 397/1/1 399/2/1 400/3/1 398/4/1
f 399/1/1 401/2/1 402/3/1 400/4/1
f 401/1/1 403/2/1 404/3/1 402/4/1
f 405/1/1 406/2/1 407/3/1 408/4/1
f 406/1/1 409/2/1 410/3/1 407/4/1
f 409/1/1 411/2/1 412/3/1 410/4/1
f 411/1/1 413/2/1 414/3/1 412/4/1
f 415/1/1 416/2/1 417/3/1 418/4/1
f 416/1/1 419/2/1 420/3/1 417/4/1
f 419/1/1 421/2/1 422/3/1 420/4/1
f 421/1/1 423/2/1 424/3/1 422/4/1
f 425/1/1 426/2/1 427/3/1 428/4/1
f 426/1/1 429/2/1 430/3/1 427/4/1
f 429/1/1 431/2/1 432/3/1 430/4/1
f 431/1/1 433/2/1 434/3/1 432/4/1
f 433/1/1 435/2/1 436/3/1 434/4/1
f 435/1/1 437/2/1 438/3/1 436/4/1
f 437/1/1 439/2/1 440/3/1 438/4/1
f 441/1/1 442/2/1 443/3/1 444/4/1
f 442/1/1 445/2/1 446/3/1 443/4/1
f 445/1/1 447/2/1 448/3/1 446/4/1
f 447/1/1 449/2/1 450/3/1 448/4/1
f 451/1/1 452/2/1 453/3/1 454/4/1
f 452/1/1 455/2/1 456/3/1 453/4/1
f 455/1/1 457/2/1 458/3/1 456/4/1
f 457/1/1 459/2/1 460/3/1 458/4/1
f 459/1/1 461/2/1 462/3/1 460/4/1
f 463/1/1 464/2/1 465/3/1 466/4/1
f 464/1/1 467/2/1 468/3/1 465/4/1
f 467/1/1 469/2/1 470/3/1 468/4/1
f 469/1/1 471/2/1 472/3/1 470/4/1
f 471/1/1 473/2/1 474/3/1 472/4/1
f 475/1/1 476/2/1 477/3/1 478/4/1
f 476/1/1 479/2/1 480/3/1 477/4/1
f 479/1/1 481/2/1 482/3/1 480/4/1
f 481/1/1 483/2/1 484/3/1 482/4/1
f 483/1/1 485/2/1 486/3/1 484/4/1
f 485/1/1 487/2/1 488/3/1 486/4/1
f 489/1/1 490/2/1 491/3/1 492/4/1
f 490/1/1 493/2/1 494/3/1 491/4/1
f 493/1/1 495/2/1 496/3/1 494/4/1
f 495/1/1 497/2/1 498/3/1 496/4/1
f 497/1/1 499/2/1 500/3/1 498/4/1
f 499/1/1 501/2/1 502/3/1 500/4/1
f 501/1/1 503/2/1 504/3/1 502/4/1
f 505/1/1 506/2/1 507/3/1 508/4/1
f 506/1/1 509/2/1 510/3/1 507/4/1
f 509/1/1 511/2/1 512/3/1 510/4/1
f 511/1/1 513/2/1 514/3/1 512/4/1
f 513/1/1 515/2/1 516/3/1 514/4/1
f 515/1/1 517/2/1 518/3/1 516/4/1
f 517/1/1 519/2/1 520/3/1 518/4/1
f 519/1/1 521/2/1 522/3/1 520/4/1
f 523/1/1 524/2/1 525/3/1 526/4/1
f 524/1/1 527/2/1 528/3/1 525/4/1
f 527/1/1 529/2/1 530/3/1 528/4/1
f 529/1/1 531/2/1 532/3/1 530/4/1
f 531/1/1 533/2/1 534/3/1 532/4/1
f 533/1/1 535/2/1 536/3/1 534/4/1
f 535/1/1 537/2/1 538/3/1 536/4/1

